# 3ds Max Wavefront OBJ Exporter v0.97b - (c)2007 guruware
# File Created: 26.03.2020 17:04:23

mtllib woodenframe.mtl

#
# object woodenframe
#

v  -79.5646 6.0085 -76.4929
v  -79.5646 152.6215 -76.4929
v  -79.5647 152.6215 70.1478
v  -79.5647 6.0085 70.1478
v  -81.5331 6.0085 -76.4929
v  -81.5332 6.0085 70.1478
v  -81.5332 152.6215 70.1478
v  -81.5331 152.6215 -76.4929
v  -70.7867 0.5578 -38.4616
v  -70.7867 0.5578 -6.0604
v  -81.6677 0.5578 -6.0604
v  -81.6677 0.5578 -38.4616
v  -70.7868 0.5578 75.4357
v  -70.7868 158.0381 75.4357
v  -81.6678 158.0381 75.4357
v  -81.6678 0.5578 75.4357
v  -70.7868 158.0381 31.8348
v  -70.7868 158.0381 -0.5486
v  -81.6677 158.0381 -0.5486
v  -81.6678 158.0381 31.8348
v  -70.7867 158.0381 -82.0446
v  -70.7867 0.5578 -82.0446
v  -81.6677 0.5578 -82.0446
v  -81.6677 158.0381 -82.0446
v  -70.7867 152.1326 -76.1391
v  -70.7867 6.4633 -76.1391
v  -70.7867 158.0381 -38.4616
v  -70.7868 158.0381 -6.0604
v  -70.7868 152.1326 -6.0604
v  -70.7867 152.1326 -38.4228
v  -70.7868 6.4633 69.5302
v  -70.7868 152.1326 69.5302
v  -70.7868 0.5578 31.8348
v  -70.7867 0.5578 -0.5486
v  -70.7867 6.4633 -0.5486
v  -70.7868 6.4633 31.8318
v  -81.6677 6.4633 -6.0604
v  -81.6677 6.4633 -38.4228
v  -81.6678 152.1326 69.5302
v  -81.6678 6.4633 69.5302
v  -81.6677 152.1326 -0.5486
v  -81.6677 152.1326 31.8318
v  -81.6677 6.4633 -76.1391
v  -81.6677 152.1326 -76.1391
v  -81.6677 152.1326 -6.0604
v  -81.6677 152.1326 -38.4228
v  -81.6677 6.4633 -0.5486
v  -81.6677 6.4633 31.8318
v  -70.7868 0.5578 37.3466
v  -81.6677 0.5578 37.3467
v  -81.6677 0.5578 31.8348
v  -81.6677 0.5578 -0.5486
v  -81.6677 0.5578 -43.9551
v  -70.7867 0.5578 -43.9551
v  -70.7867 158.0381 -43.9551
v  -81.6677 158.0381 -43.9551
v  -81.6677 158.0381 -38.4616
v  -81.6677 158.0381 -6.0604
v  -81.6678 158.0381 37.3467
v  -70.7868 158.0381 37.3466
v  -70.7868 152.1326 37.3436
v  -70.7868 152.1326 31.8318
v  -70.7868 152.1326 -0.5486
v  -70.7867 152.1326 -43.9532
v  -70.7867 6.4633 -43.9532
v  -70.7867 6.4633 -38.4228
v  -70.7867 6.4633 -6.0604
v  -70.7868 6.4633 37.3436
v  -81.6677 6.4633 37.3436
v  -81.6677 6.4633 -43.9532
v  -81.6677 152.1326 -43.9532
v  -81.6678 152.1326 37.3436
# 72 vertices

vn 1.0000 0.0000 0.0000
vn -1.0000 -0.0000 -0.0000
vn 0.7071 -0.7071 0.0000
vn -0.7071 -0.7071 -0.0000
vn 0.5774 -0.5774 0.5774
vn 0.5774 0.5774 0.5774
vn -0.5774 0.5774 0.5774
vn -0.5774 -0.5774 0.5774
vn 0.7071 0.7071 0.0000
vn -0.7071 0.7071 -0.0000
vn 0.5774 0.5774 -0.5774
vn 0.5774 -0.5774 -0.5774
vn -0.5774 -0.5774 -0.5774
vn -0.5774 0.5774 -0.5774
vn 0.9045 -0.3015 0.3015
vn 0.9045 0.3015 0.3015
vn 0.9045 -0.3015 -0.3015
vn 0.9045 0.3015 -0.3015
vn -0.9045 0.3015 -0.3015
vn -0.9045 0.3015 0.3015
vn -0.9045 -0.3015 -0.3015
vn -0.9045 -0.3015 0.3015
# 22 vertex normals

vt 0.5007 0.5868 0.0000
vt 0.5007 0.9782 0.0000
vt 0.1093 0.9782 0.0000
vt 0.1093 0.5868 0.0000
vt 0.5229 0.5873 0.0000
vt 0.9143 0.5873 0.0000
vt 0.9143 0.9787 0.0000
vt 0.5229 0.9787 0.0000
vt 0.3284 0.1303 0.0000
vt 0.2419 0.1303 0.0000
vt 0.2419 0.1013 0.0000
vt 0.3284 0.1013 0.0000
vt 0.2805 0.1400 0.0000
vt 0.2805 0.5604 0.0000
vt 0.2514 0.5604 0.0000
vt 0.2514 0.1400 0.0000
vt 0.7772 0.1232 0.0000
vt 0.6908 0.1232 0.0000
vt 0.6908 0.0942 0.0000
vt 0.7772 0.0942 0.0000
vt 0.1850 0.5522 0.0000
vt 0.1850 0.1318 0.0000
vt 0.2140 0.1318 0.0000
vt 0.2140 0.5522 0.0000
vt 0.1692 0.5364 0.0000
vt 0.1692 0.1475 0.0000
vt 0.1368 0.0238 0.0000
vt 0.2233 0.0237 0.0000
vt 0.2233 0.0394 0.0000
vt 0.1369 0.0396 0.0000
vt 0.2962 0.1558 0.0000
vt 0.2962 0.5446 0.0000
vt 0.7787 0.0750 0.0000
vt 0.6923 0.0755 0.0000
vt 0.6922 0.0598 0.0000
vt 0.7786 0.0593 0.0000
vt 0.5907 0.0156 0.0000
vt 0.6772 0.0151 0.0000
vt 0.6773 0.0308 0.0000
vt 0.5909 0.0313 0.0000
vt 0.3620 0.1400 0.0000
vt 0.3620 0.5604 0.0000
vt 0.3462 0.5446 0.0000
vt 0.3462 0.1558 0.0000
vt 0.3245 0.0841 0.0000
vt 0.2381 0.0842 0.0000
vt 0.2381 0.0684 0.0000
vt 0.3245 0.0683 0.0000
vt 0.2298 0.1475 0.0000
vt 0.2298 0.5364 0.0000
vt 0.1402 0.5364 0.0000
vt 0.1402 0.1475 0.0000
vt 0.2234 0.0685 0.0000
vt 0.1370 0.0686 0.0000
vt 0.3253 0.1558 0.0000
vt 0.3253 0.5446 0.0000
vt 0.6920 0.0307 0.0000
vt 0.7784 0.0302 0.0000
vt 0.1260 0.1303 0.0000
vt 0.0243 0.1303 0.0000
vt 0.0243 0.1013 0.0000
vt 0.1260 0.1013 0.0000
vt 0.2271 0.1303 0.0000
vt 0.1407 0.1303 0.0000
vt 0.1407 0.1013 0.0000
vt 0.2271 0.1013 0.0000
vt 0.3430 0.1013 0.0000
vt 0.4447 0.1013 0.0000
vt 0.4447 0.1303 0.0000
vt 0.3430 0.1303 0.0000
vt 0.5749 0.1232 0.0000
vt 0.4732 0.1232 0.0000
vt 0.4732 0.0942 0.0000
vt 0.5749 0.0942 0.0000
vt 0.6761 0.1232 0.0000
vt 0.5896 0.1232 0.0000
vt 0.5896 0.0942 0.0000
vt 0.6761 0.0942 0.0000
vt 0.7919 0.0942 0.0000
vt 0.8936 0.0942 0.0000
vt 0.8936 0.1232 0.0000
vt 0.7919 0.1232 0.0000
vt 0.3392 0.0235 0.0000
vt 0.4408 0.0233 0.0000
vt 0.4251 0.0391 0.0000
vt 0.3392 0.0392 0.0000
vt 0.2380 0.0236 0.0000
vt 0.3244 0.0235 0.0000
vt 0.3245 0.0392 0.0000
vt 0.2380 0.0394 0.0000
vt 0.1222 0.0396 0.0000
vt 0.0362 0.0397 0.0000
vt 0.0204 0.0240 0.0000
vt 0.1221 0.0238 0.0000
vt 0.5764 0.0762 0.0000
vt 0.4747 0.0768 0.0000
vt 0.4904 0.0610 0.0000
vt 0.5763 0.0605 0.0000
vt 0.6775 0.0756 0.0000
vt 0.5910 0.0762 0.0000
vt 0.5911 0.0604 0.0000
vt 0.6774 0.0599 0.0000
vt 0.7933 0.0592 0.0000
vt 0.8792 0.0587 0.0000
vt 0.8951 0.0743 0.0000
vt 0.7934 0.0749 0.0000
vt 0.7931 0.0144 0.0000
vt 0.8947 0.0138 0.0000
vt 0.8791 0.0296 0.0000
vt 0.7931 0.0301 0.0000
vt 0.6919 0.0150 0.0000
vt 0.7783 0.0145 0.0000
vt 0.5761 0.0314 0.0000
vt 0.4902 0.0319 0.0000
vt 0.4744 0.0163 0.0000
vt 0.5760 0.0157 0.0000
vt 0.1222 0.0844 0.0000
vt 0.0205 0.0846 0.0000
vt 0.0363 0.0688 0.0000
vt 0.1222 0.0686 0.0000
vt 0.2234 0.0842 0.0000
vt 0.1369 0.0844 0.0000
vt 0.3392 0.0683 0.0000
vt 0.4251 0.0681 0.0000
vt 0.4409 0.0839 0.0000
vt 0.3393 0.0840 0.0000
vt 0.5355 0.5232 0.0000
vt 0.5208 0.5232 0.0000
vt 0.5208 0.1344 0.0000
vt 0.5355 0.1344 0.0000
vt 0.4918 0.5232 0.0000
vt 0.4918 0.1344 0.0000
vt 0.4159 0.5232 0.0000
vt 0.4011 0.5232 0.0000
vt 0.4011 0.1344 0.0000
vt 0.4159 0.1344 0.0000
vt 0.5646 0.5232 0.0000
vt 0.5646 0.1344 0.0000
vt 0.4612 0.5232 0.0000
vt 0.4465 0.5232 0.0000
vt 0.4465 0.1344 0.0000
vt 0.4612 0.1344 0.0000
vt 0.7324 0.5449 0.0000
vt 0.7034 0.5449 0.0000
vt 0.7034 0.1560 0.0000
vt 0.7324 0.1560 0.0000
vt 0.6886 0.5449 0.0000
vt 0.6886 0.1560 0.0000
vt 0.6596 0.5449 0.0000
vt 0.6596 0.1560 0.0000
vt 0.7916 0.1560 0.0000
vt 0.8064 0.1560 0.0000
vt 0.8064 0.5449 0.0000
vt 0.7916 0.5449 0.0000
vt 0.8354 0.1560 0.0000
vt 0.8354 0.5449 0.0000
vt 0.5948 0.1344 0.0000
vt 0.6095 0.1344 0.0000
vt 0.6095 0.5232 0.0000
vt 0.5948 0.5232 0.0000
vt 0.7626 0.1560 0.0000
vt 0.7626 0.5449 0.0000
# 162 texture coords

o woodenframe
g woodenframe
usemtl wire_088088225
s 2
f 1/1/1 2/2/1 3/3/1 4/4/1 
s 4
f 5/5/2 6/6/2 7/7/2 8/8/2 
s 1
f 9/9/3 10/10/3 11/11/4 12/12/4 
s 2
f 13/13/5 14/14/6 15/15/7 16/16/8 
s 1
f 17/17/9 18/18/9 19/19/10 20/20/10 
s 2
f 21/21/11 22/22/12 23/23/13 24/24/14 
s 4
f 22/22/12 21/21/11 25/25/15 26/26/16 
f 27/27/9 28/28/9 29/29/17 30/30/15 
f 14/14/6 13/13/5 31/31/18 32/32/17 
f 33/33/3 34/34/3 35/35/16 36/36/18 
f 12/37/4 11/38/4 37/39/19 38/40/20 
f 16/41/8 15/42/7 39/43/21 40/44/19 
f 20/45/10 19/46/10 41/47/22 42/48/21 
f 24/24/14 23/23/13 43/49/20 44/50/22 
s 1
f 26/26/16 25/25/15 44/51/22 43/52/20 
s 2
f 30/30/15 29/29/17 45/53/21 46/54/22 
s 1
f 32/32/17 31/31/18 40/55/19 39/56/21 
s 2
f 36/36/18 35/35/16 47/57/20 48/58/19 
s 1
f 49/59/3 13/60/5 16/61/8 50/62/4 
f 34/63/3 33/64/3 51/65/4 52/66/4 
f 53/67/4 23/68/13 22/69/12 54/70/3 
f 55/71/9 21/72/11 24/73/14 56/74/10 
f 28/75/9 27/76/9 57/77/10 58/78/10 
f 59/79/10 15/80/7 14/81/6 60/82/9 
s 4
f 60/83/9 14/84/6 32/85/17 61/86/15 
f 18/87/9 17/88/9 62/89/17 63/90/15 
f 64/91/17 25/92/15 21/93/11 55/94/9 
f 54/95/3 22/96/12 26/97/16 65/98/18 
f 10/99/3 9/100/3 66/101/16 67/102/18 
f 68/103/16 31/104/18 13/105/5 49/106/3 
f 50/107/4 16/108/8 40/109/19 69/110/20 
f 52/111/4 51/112/4 48/58/19 47/57/20 
f 70/113/19 43/114/20 23/115/13 53/116/4 
f 56/117/10 24/118/14 44/119/22 71/120/21 
f 58/121/10 57/122/10 46/54/22 45/53/21 
f 72/123/22 39/124/21 15/125/7 59/126/10 
s 2
f 61/86/15 32/85/17 39/124/21 72/123/22 
f 63/90/15 62/89/17 42/48/21 41/47/22 
f 71/120/21 44/119/22 25/92/15 64/91/17 
f 65/98/18 26/97/16 43/114/20 70/113/19 
f 67/102/18 66/101/16 38/40/20 37/39/19 
f 69/110/20 40/109/19 31/104/18 68/103/16 
s 1
f 17/17/9 20/20/10 59/79/10 60/82/9 
s 4
f 33/33/3 36/36/18 68/103/16 49/106/3 
f 20/45/10 42/48/21 72/123/22 59/126/10 
s 1
f 49/59/3 50/62/4 51/65/4 33/64/3 
s 4
f 60/83/9 61/86/15 62/89/17 17/88/9 
f 50/107/4 69/110/20 48/58/19 51/112/4 
s 1
f 11/11/4 10/10/3 34/63/3 52/66/4 
f 19/19/10 18/18/9 28/75/9 58/78/10 
s 4
f 29/29/17 28/28/9 18/87/9 63/90/15 
f 35/35/16 34/34/3 10/99/3 67/102/18 
f 37/39/19 11/38/4 52/111/4 47/57/20 
f 41/47/22 19/46/10 58/121/10 45/53/21 
s 1
f 9/9/3 12/12/4 53/67/4 54/70/3 
s 4
f 27/27/9 30/30/15 64/91/17 55/94/9 
f 12/37/4 38/40/20 70/113/19 53/116/4 
s 1
f 55/71/9 56/74/10 57/77/10 27/76/9 
s 4
f 54/95/3 65/98/18 66/101/16 9/100/3 
f 56/117/10 71/120/21 46/54/22 57/122/10 
s 1
f 29/127/17 63/128/15 35/129/16 67/130/18 
s 8
f 63/128/15 41/131/22 47/132/20 35/129/16 
s 1
f 41/133/22 45/134/21 37/135/19 47/136/20 
s 8
f 45/137/21 29/127/17 67/130/18 37/138/19 
s 1
f 46/139/22 71/140/21 70/141/19 38/142/20 
s 8
f 71/143/21 64/144/17 65/145/18 70/146/19 
s 1
f 64/144/17 30/147/15 66/148/16 65/145/18 
s 8
f 30/147/15 46/149/22 38/150/20 66/148/16 
s 1
f 68/151/16 36/152/18 62/153/17 61/154/15 
s 8
f 36/152/18 48/155/19 42/156/21 62/153/17 
s 1
f 48/157/19 69/158/20 72/159/22 42/160/21 
s 8
f 69/161/20 68/151/16 61/154/15 72/162/22 
# 72 polygons

