# 3ds Max Wavefront OBJ Exporter v0.97b - (c)2007 guruware
# File Created: 27.03.2020 18:23:33

mtllib leaf.mtl

#
# object Box001
#

v  -152.9946 26.6553 32.6268
v  -130.9570 30.2815 40.3400
v  -130.9570 38.0760 10.5892
v  -160.7077 30.2815 10.5892
v  -108.9194 26.6553 32.6268
v  -101.2062 30.2815 10.5892
v  -108.9194 26.6553 -11.4484
v  -130.9570 30.2815 -19.1616
v  -152.9946 26.6553 -11.4484
v  -156.2951 5.7292 35.9273
v  -130.9570 5.7347 44.3734
v  -130.9570 17.6625 44.3734
v  -156.2951 17.4549 35.9273
v  -105.6188 5.7292 35.9273
v  -105.6188 17.4549 35.9273
v  -97.1728 5.7347 10.5892
v  -97.1728 17.6625 10.5892
v  -105.6188 5.7292 -14.7489
v  -105.6188 17.4549 -14.7489
v  -130.9570 5.7347 -23.1950
v  -130.9570 17.6625 -23.1950
v  -156.2951 5.7292 -14.7489
v  -156.2951 17.4549 -14.7489
v  -164.7411 5.7347 10.5892
v  -164.7411 17.6625 10.5892
# 25 vertices

vn -0.5437 0.6394 0.5437
vn 0.0000 0.6774 0.7356
vn 0.0000 1.0000 -0.0000
vn -0.7356 0.6774 -0.0000
vn 0.5437 0.6394 0.5437
vn 0.7356 0.6774 -0.0000
vn 0.5437 0.6394 -0.5437
vn 0.0000 0.6774 -0.7356
vn -0.5437 0.6394 -0.5437
vn -0.7071 0.0000 0.7071
vn 0.0000 0.0000 1.0000
vn 0.0000 0.1304 0.9915
vn -0.6940 0.1916 0.6940
vn 0.7071 0.0000 0.7071
vn 0.6940 0.1916 0.6940
vn 1.0000 0.0000 -0.0000
vn 0.9915 0.1304 -0.0000
vn 0.7071 0.0000 -0.7071
vn 0.6940 0.1916 -0.6940
vn 0.0000 0.0000 -1.0000
vn 0.0000 0.1304 -0.9915
vn -0.7071 0.0000 -0.7071
vn -0.6940 0.1916 -0.6940
vn -1.0000 0.0000 -0.0000
vn -0.9915 0.1304 -0.0000
# 25 vertex normals

vt 0.2024 0.5331 0.0000
vt 0.2825 0.3260 0.0000
vt 0.5000 0.5000 0.0000
vt 0.3260 0.7175 0.0000
vt 0.4669 0.2024 0.0000
vt 0.6740 0.2825 0.0000
vt 0.7976 0.4669 0.0000
vt 0.7175 0.6740 0.0000
vt 0.5331 0.7976 0.0000
vt 0.0005 0.5555 0.0000
vt 0.1080 0.1864 0.0000
vt 0.1985 0.2588 0.0000
vt 0.1134 0.5430 0.0000
vt 0.4445 0.0005 0.0000
vt 0.4570 0.1134 0.0000
vt 0.8136 0.1080 0.0000
vt 0.7412 0.1985 0.0000
vt 0.9995 0.4445 0.0000
vt 0.8866 0.4570 0.0000
vt 0.8920 0.8136 0.0000
vt 0.8015 0.7412 0.0000
vt 0.5555 0.9995 0.0000
vt 0.5430 0.8866 0.0000
vt 0.1864 0.8920 0.0000
vt 0.2588 0.8015 0.0000
# 25 texture coords

o Box001
g Box001
usemtl Material__25
s 1
f 1/1/1 2/2/2 3/3/3 4/4/4 
f 2/2/2 5/5/5 6/6/6 3/3/3 
f 7/7/7 8/8/8 3/3/3 6/6/6 
f 8/8/8 9/9/9 4/4/4 3/3/3 
f 10/10/10 11/11/11 12/12/12 13/13/13 
f 11/11/11 14/14/14 15/15/15 12/12/12 
f 5/5/5 2/2/2 12/12/12 15/15/15 
f 2/2/2 1/1/1 13/13/13 12/12/12 
f 14/14/14 16/16/16 17/17/17 15/15/15 
f 16/16/16 18/18/18 19/19/19 17/17/17 
f 7/7/7 6/6/6 17/17/17 19/19/19 
f 6/6/6 5/5/5 15/15/15 17/17/17 
f 18/18/18 20/20/20 21/21/21 19/19/19 
f 20/20/20 22/22/22 23/23/23 21/21/21 
f 9/9/9 8/8/8 21/21/21 23/23/23 
f 8/8/8 7/7/7 19/19/19 21/21/21 
f 22/22/22 24/24/24 25/25/25 23/23/23 
f 24/24/24 10/10/10 13/13/13 25/25/25 
f 1/1/1 4/4/4 25/25/25 13/13/13 
f 4/4/4 9/9/9 23/23/23 25/25/25 
# 20 polygons

#
# object Box002
#

v  -146.1555 39.0137 25.7685
v  -131.0166 41.9911 30.9911
v  -131.0166 48.4778 10.6296
v  -151.3781 41.9911 10.6296
v  -115.8776 39.0137 25.7685
v  -110.6551 41.9911 10.6296
v  -115.8776 39.0137 -4.5094
v  -131.0166 41.9911 -9.7320
v  -146.1555 39.0137 -4.5094
v  -157.6283 22.2833 37.2413
v  -131.0166 22.2884 46.1119
v  -131.0166 23.8624 42.5541
v  -154.9692 23.7778 34.5822
v  -104.4049 22.2833 37.2413
v  -107.0639 23.7778 34.5822
v  -131.0166 32.2484 38.5568
v  -110.0777 32.1067 31.5685
v  -151.9555 32.1067 31.5685
v  -95.5343 22.2884 10.6296
v  -99.0920 23.8624 10.6296
v  -104.4049 22.2833 -15.9822
v  -107.0639 23.7778 -13.3231
v  -103.0894 32.2484 10.6296
v  -110.0777 32.1067 -10.3094
v  -131.0166 22.2884 -24.8528
v  -131.0166 23.8624 -21.2950
v  -157.6283 22.2833 -15.9822
v  -154.9692 23.7778 -13.3231
v  -131.0166 32.2484 -17.2976
v  -151.9555 32.1067 -10.3094
v  -166.4989 22.2884 10.6296
v  -162.9412 23.8624 10.6296
v  -158.9438 32.2484 10.6296
v  -130.8906 29.8252 38.9843
v  -152.2723 29.7741 31.8853
v  -109.7609 29.7741 31.8853
v  -102.6618 29.8252 10.5036
v  -109.7609 29.7741 -10.6262
v  -131.1426 29.8252 -17.7252
v  -152.2723 29.7741 -10.6262
v  -159.3714 29.8252 10.7555
v  -130.9849 26.6625 40.1684
v  -153.1655 26.6011 32.7785
v  -108.8676 26.6011 32.7785
v  -101.4777 26.6625 10.5979
v  -108.8676 26.6011 -11.5194
v  -131.0482 26.6625 -18.9093
v  -153.1655 26.6011 -11.5194
v  -160.5555 26.6625 10.6612
# 49 vertices

vn -0.3967 0.8278 0.3967
vn 0.0000 0.8039 0.5947
vn 0.0000 1.0000 -0.0000
vn -0.5947 0.8039 -0.0000
vn 0.3967 0.8278 0.3967
vn 0.5947 0.8039 -0.0000
vn 0.3967 0.8278 -0.3967
vn 0.0000 0.8039 -0.5947
vn -0.3967 0.8278 -0.3967
vn -0.2612 0.9293 0.2612
vn -0.0000 0.9145 0.4046
vn -0.0005 0.8234 0.5674
vn -0.3692 0.8529 0.3692
vn 0.2612 0.9293 0.2612
vn 0.3692 0.8529 0.3692
vn -0.0059 0.3890 0.9212
vn 0.6252 0.4672 0.6252
vn -0.6252 0.4672 0.6252
vn 0.4046 0.9145 -0.0000
vn 0.5674 0.8234 0.0005
vn 0.2612 0.9293 -0.2612
vn 0.3692 0.8529 -0.3692
vn 0.9212 0.3890 0.0059
vn 0.6252 0.4672 -0.6252
vn 0.0000 0.9145 -0.4046
vn 0.0005 0.8234 -0.5674
vn -0.2612 0.9293 -0.2612
vn -0.3692 0.8529 -0.3692
vn 0.0059 0.3890 -0.9212
vn -0.6252 0.4672 -0.6252
vn -0.4046 0.9145 -0.0000
vn -0.5674 0.8234 -0.0005
vn -0.9212 0.3890 -0.0059
vn 0.0095 0.2682 0.9633
vn -0.6759 0.2882 0.6784
vn 0.6784 0.2882 0.6759
vn 0.9633 0.2682 -0.0095
vn 0.6759 0.2882 -0.6784
vn -0.0095 0.2682 -0.9633
vn -0.6784 0.2882 -0.6759
vn -0.9633 0.2682 0.0095
vn -0.0009 0.5229 0.8524
vn -0.5889 0.5528 0.5895
vn 0.5895 0.5528 0.5889
vn 0.8524 0.5229 0.0009
vn 0.5889 0.5528 -0.5895
vn 0.0009 0.5229 -0.8524
vn -0.5895 0.5528 -0.5889
vn -0.8524 0.5229 -0.0009
# 49 vertex normals

vt 0.2770 0.6641 0.0000
vt 0.2332 0.4594 0.0000
vt 0.5000 0.5000 0.0000
vt 0.4594 0.7668 0.0000
vt 0.3359 0.2770 0.0000
vt 0.5406 0.2332 0.0000
vt 0.7230 0.3359 0.0000
vt 0.7668 0.5406 0.0000
vt 0.6641 0.7230 0.0000
vt 0.0580 0.8256 0.0000
vt -0.0386 0.4183 0.0000
vt 0.0444 0.4308 0.0000
vt 0.1260 0.7755 0.0000
vt 0.1744 0.0580 0.0000
vt 0.2245 0.1260 0.0000
vt 0.1310 0.4439 0.0000
vt 0.2721 0.1906 0.0000
vt 0.1906 0.7279 0.0000
vt 0.5817 -0.0386 0.0000
vt 0.5692 0.0444 0.0000
vt 0.9420 0.1744 0.0000
vt 0.8740 0.2245 0.0000
vt 0.5561 0.1310 0.0000
vt 0.8094 0.2721 0.0000
vt 1.0172 0.5851 0.0000
vt 0.9556 0.5691 0.0000
vt 0.8256 0.9420 0.0000
vt 0.7755 0.8740 0.0000
vt 0.8690 0.5561 0.0000
vt 0.7279 0.8094 0.0000
vt 0.4183 1.0386 0.0000
vt 0.4308 0.9556 0.0000
vt 0.4439 0.8690 0.0000
vt 0.1055 0.4395 0.0000
vt 0.1732 0.7417 0.0000
vt 0.2583 0.1732 0.0000
vt 0.5605 0.1055 0.0000
vt 0.8268 0.2583 0.0000
vt 0.8945 0.5605 0.0000
vt 0.7417 0.8268 0.0000
vt 0.4395 0.8945 0.0000
vt 0.0751 0.4353 0.0000
vt 0.1503 0.7579 0.0000
vt 0.2421 0.1503 0.0000
vt 0.5647 0.0751 0.0000
vt 0.8497 0.2421 0.0000
vt 0.9249 0.5647 0.0000
vt 0.7579 0.8497 0.0000
vt 0.4353 0.9249 0.0000
# 49 texture coords

o Box002
g Box002
usemtl Material__25
s 1
f 26/26/26 27/27/27 28/28/28 29/29/29 
s 2
f 27/27/27 30/30/30 31/31/31 28/28/28 
s 4
f 32/32/32 33/33/33 28/28/28 31/31/31 
s 8
f 33/33/33 34/34/34 29/29/29 28/28/28 
s 4
f 35/35/35 36/36/36 37/37/37 38/38/38 
f 36/36/36 39/39/39 40/40/40 37/37/37 
f 30/30/30 27/27/27 41/41/41 42/42/42 
f 27/27/27 26/26/26 43/43/43 41/41/41 
s 1
f 39/39/39 44/44/44 45/45/45 40/40/40 
f 44/44/44 46/46/46 47/47/47 45/45/45 
f 32/32/32 31/31/31 48/48/48 49/49/49 
f 31/31/31 30/30/30 42/42/42 48/48/48 
s 2
f 46/46/46 50/50/50 51/51/51 47/47/47 
f 50/50/50 52/52/52 53/53/53 51/51/51 
f 34/34/34 33/33/33 54/54/54 55/55/55 
f 33/33/33 32/32/32 49/49/49 54/54/54 
s 16
f 52/52/52 56/56/56 57/57/57 53/53/53 
f 56/56/56 35/35/35 38/38/38 57/57/57 
f 26/26/26 29/29/29 58/58/58 43/43/43 
f 29/29/29 34/34/34 55/55/55 58/58/58 
s 4
f 59/59/59 41/41/41 43/43/43 60/60/60 
f 61/61/61 42/42/42 41/41/41 59/59/59 
s 1
f 62/62/62 48/48/48 42/42/42 61/61/61 
f 63/63/63 49/49/49 48/48/48 62/62/62 
s 2
f 64/64/64 54/54/54 49/49/49 63/63/63 
f 65/65/65 55/55/55 54/54/54 64/64/64 
s 16
f 66/66/66 58/58/58 55/55/55 65/65/65 
f 60/60/60 43/43/43 58/58/58 66/66/66 
s 4
f 38/38/38 37/37/37 67/67/67 68/68/68 
f 37/37/37 40/40/40 69/69/69 67/67/67 
s 1
f 40/40/40 45/45/45 70/70/70 69/69/69 
f 45/45/45 47/47/47 71/71/71 70/70/70 
s 2
f 47/47/47 51/51/51 72/72/72 71/71/71 
f 51/51/51 53/53/53 73/73/73 72/72/72 
s 16
f 53/53/53 57/57/57 74/74/74 73/73/73 
f 57/57/57 38/38/38 68/68/68 74/74/74 
s 4
f 59/59/59 60/60/60 68/68/68 67/67/67 
f 61/61/61 59/59/59 67/67/67 69/69/69 
s 1
f 62/62/62 61/61/61 69/69/69 70/70/70 
f 63/63/63 62/62/62 70/70/70 71/71/71 
s 2
f 64/64/64 63/63/63 71/71/71 72/72/72 
f 65/65/65 64/64/64 72/72/72 73/73/73 
s 16
f 66/66/66 65/65/65 73/73/73 74/74/74 
f 60/60/60 66/66/66 74/74/74 68/68/68 
# 44 polygons

#
# object Plane001
#

v  -134.8836 49.1382 9.7472
v  -134.8836 53.3380 14.7970
v  -129.8338 47.3142 14.7970
v  -129.8338 47.3142 9.7472
v  -124.7840 47.3142 14.7970
v  -124.7840 47.3142 9.7472
v  -134.8836 53.3380 4.6973
v  -129.8338 49.1382 4.6973
v  -124.7840 53.3380 4.6973
# 9 vertices

vn 0.3397 0.9405 -0.0000
vn 0.6759 0.5666 -0.4713
vn 0.4228 0.9062 -0.0000
vn 0.1672 0.9716 0.1672
vn 0.0000 1.0000 -0.0000
vn 0.0000 0.9062 0.4228
vn 0.5387 0.6477 0.5387
vn 0.0000 0.9405 0.3397
vn -0.4713 0.5666 0.6759
# 9 vertex normals

vt 0.1931 0.5048 0.0000
vt 0.1754 0.1441 0.0000
vt 0.5361 0.1264 0.0000
vt 0.5538 0.4871 0.0000
vt 0.8967 0.1087 0.0000
vt 0.9144 0.4694 0.0000
vt 0.2108 0.8654 0.0000
vt 0.5714 0.8478 0.0000
vt 0.9321 0.8301 0.0000
# 9 texture coords

o Plane001
g Plane001
usemtl Material__26
s 1
f 75/75/75 76/76/76 77/77/77 78/78/78 
f 78/78/78 77/77/77 79/79/79 80/80/80 
f 81/81/81 75/75/75 78/78/78 82/82/82 
f 82/82/82 78/78/78 80/80/80 83/83/83 
# 4 polygons

#
# object Plane002
#

v  -154.5667 40.1170 9.7472
v  -156.8130 43.6656 14.7970
v  -149.3243 41.2768 14.7970
v  -149.3243 41.2768 9.7472
v  -145.0575 43.9777 14.7970
v  -145.0575 43.9777 9.7472
v  -156.8130 43.6656 4.6973
v  -150.2999 42.8179 4.6973
v  -148.2794 49.0675 4.6973
# 9 vertices

vn -0.2160 0.9764 -0.0000
vn 0.2680 0.8403 -0.4713
vn -0.1274 0.9918 -0.0000
vn -0.3784 0.9104 0.1672
vn -0.5349 0.8449 -0.0000
vn -0.4847 0.7657 0.4228
vn 0.1087 0.8354 0.5387
vn -0.5030 0.7947 0.3397
vn -0.7012 0.2267 0.6759
# 9 vertex normals

vt 0.1931 0.5048 0.0000
vt 0.1754 0.1441 0.0000
vt 0.5361 0.1264 0.0000
vt 0.5538 0.4871 0.0000
vt 0.8967 0.1087 0.0000
vt 0.9144 0.4694 0.0000
vt 0.2108 0.8654 0.0000
vt 0.5714 0.8478 0.0000
vt 0.9321 0.8301 0.0000
# 9 texture coords

o Plane002
g Plane002
usemtl Material__26
s 1
f 84/84/84 85/85/85 86/86/86 87/87/87 
f 87/87/87 86/86/86 88/88/88 89/89/89 
f 90/90/90 84/84/84 87/87/87 91/91/91 
f 91/91/91 87/87/87 89/89/89 92/92/92 
# 4 polygons

#
# object Plane003
#

v  -134.7025 39.3718 -10.6180
v  -140.1239 42.9901 -11.4275
v  -135.8080 43.9199 -4.9240
v  -131.6812 42.4886 -7.4581
v  -133.3489 47.9865 -3.2163
v  -129.2221 46.5552 -5.7503
v  -131.8703 40.1275 -16.4956
v  -128.1167 42.0071 -11.4443
v  -126.9522 48.2607 -13.0801
# 9 vertices

vn -0.1245 0.7633 -0.6339
vn 0.5396 0.7058 -0.4590
vn -0.0734 0.8124 -0.5785
vn -0.3547 0.6880 -0.6331
vn -0.3083 0.5207 -0.7961
vn -0.6249 0.5917 -0.5093
vn -0.3776 0.9238 -0.0632
vn -0.5675 0.5861 -0.5783
vn -0.9565 0.1071 -0.2713
# 9 vertex normals

vt 0.1931 0.5048 0.0000
vt 0.1754 0.1441 0.0000
vt 0.5361 0.1264 0.0000
vt 0.5538 0.4871 0.0000
vt 0.8967 0.1087 0.0000
vt 0.9144 0.4694 0.0000
vt 0.2108 0.8654 0.0000
vt 0.5714 0.8478 0.0000
vt 0.9321 0.8301 0.0000
# 9 texture coords

o Plane003
g Plane003
usemtl Material__26
s 1
f 93/93/93 94/94/94 95/95/95 96/96/96 
f 96/96/96 95/95/95 97/97/97 98/98/98 
f 99/99/99 93/93/93 96/96/96 100/100/100 
f 100/100/100 96/96/96 98/98/98 101/101/101 
# 4 polygons

#
# object Plane004
#

v  -121.9654 45.2684 17.0997
v  -125.8322 49.3806 20.4578
v  -124.4361 42.1973 23.3280
v  -119.9731 42.1211 20.9666
v  -122.1849 40.8029 27.6278
v  -117.7218 40.7267 25.2664
v  -116.9061 49.2283 15.7350
v  -115.2511 43.7978 19.0381
v  -112.4036 46.4395 24.3346
# 9 vertices

vn 0.2850 0.8100 0.5125
vn 0.7983 0.3508 0.4896
vn 0.3171 0.7541 0.5751
vn 0.0647 0.8901 0.4511
vn 0.1420 0.9610 0.2373
vn -0.2450 0.8772 0.4128
vn -0.1440 0.4818 0.8643
vn -0.1667 0.9090 0.3821
vn -0.7270 0.6848 0.0493
# 9 vertex normals

vt 0.1931 0.5048 0.0000
vt 0.1754 0.1441 0.0000
vt 0.5361 0.1264 0.0000
vt 0.5538 0.4871 0.0000
vt 0.8967 0.1087 0.0000
vt 0.9144 0.4694 0.0000
vt 0.2108 0.8654 0.0000
vt 0.5714 0.8478 0.0000
vt 0.9321 0.8301 0.0000
# 9 texture coords

o Plane004
g Plane004
usemtl Material__26
s 1
f 102/102/102 103/103/103 104/104/104 105/105/105 
f 105/105/105 104/104/104 106/106/106 107/107/107 
f 108/108/108 102/102/102 105/105/105 109/109/109 
f 109/109/109 105/105/105 107/107/107 110/110/110 
# 4 polygons

#
# object Plane005
#

v  -114.6117 42.7076 4.8928
v  -115.6872 49.0972 5.9674
v  -114.5107 44.3066 12.0873
v  -111.7089 41.2768 9.1769
v  -110.8582 44.3350 15.5742
v  -108.0563 41.3051 12.6638
v  -110.0834 43.0375 0.1467
v  -108.1572 39.7061 5.4693
v  -102.7783 43.0943 7.1205
# 9 vertices

vn 0.6323 0.7543 -0.1765
vn 0.9833 0.1743 -0.0525
vn 0.6783 0.7273 -0.1041
vn 0.4276 0.8786 -0.2129
vn 0.4111 0.8000 -0.4371
vn 0.1379 0.9786 -0.1524
vn 0.3570 0.8444 0.3993
vn 0.1981 0.9562 -0.2153
vn -0.4830 0.8562 -0.1835
# 9 vertex normals

vt 0.1931 0.5048 0.0000
vt 0.1754 0.1441 0.0000
vt 0.5361 0.1264 0.0000
vt 0.5538 0.4871 0.0000
vt 0.8967 0.1087 0.0000
vt 0.9144 0.4694 0.0000
vt 0.2108 0.8654 0.0000
vt 0.5714 0.8478 0.0000
vt 0.9321 0.8301 0.0000
# 9 texture coords

o Plane005
g Plane005
usemtl Material__26
s 1
f 111/111/111 112/112/112 113/113/113 114/114/114 
f 114/114/114 113/113/113 115/115/115 116/116/116 
f 117/117/117 111/111/111 114/114/114 118/118/118 
f 118/118/118 114/114/114 116/116/116 119/119/119 
# 4 polygons

#
# object Box003
#

v  -118.9245 23.9299 35.2593
v  -106.1827 27.1235 19.1197
v  -130.9570 33.9882 10.5892
v  -139.4874 27.1235 35.3634
v  -106.2868 23.9299 -1.4432
v  -122.4265 27.1235 -14.1850
v  -142.9894 23.9299 -14.0810
v  -155.7312 27.1235 2.0587
v  -155.6271 23.9299 22.6216
v  -117.1225 5.5001 38.9541
v  -102.8240 5.5049 20.2762
v  -102.8240 16.0098 20.2762
v  -117.1225 15.8270 38.9541
v  -102.5920 5.5001 -3.2453
v  -102.5920 15.8270 -3.2453
v  -121.2700 5.5049 -17.5438
v  -121.2700 16.0098 -17.5438
v  -144.7915 5.5001 -17.7758
v  -144.7915 15.8270 -17.7757
v  -159.0899 5.5049 0.9022
v  -159.0899 16.0098 0.9022
v  -159.3219 5.5001 24.4237
v  -159.3219 15.8270 24.4237
v  -140.6439 5.5049 38.7222
v  -140.6439 16.0098 38.7222
# 25 vertices

vn 0.3371 0.6394 0.6911
vn 0.6955 0.6774 0.2395
vn 0.0000 1.0000 -0.0000
vn -0.2395 0.6774 0.6955
vn 0.6911 0.6394 -0.3371
vn 0.2395 0.6774 -0.6955
vn -0.3371 0.6394 -0.6911
vn -0.6955 0.6774 -0.2395
vn -0.6911 0.6394 0.3371
vn 0.4384 0.0000 0.8988
vn 0.9455 0.0000 0.3256
vn 0.9374 0.1304 0.3228
vn 0.4303 0.1916 0.8821
vn 0.8988 0.0000 -0.4384
vn 0.8821 0.1916 -0.4303
vn 0.3256 0.0000 -0.9455
vn 0.3228 0.1304 -0.9374
vn -0.4384 0.0000 -0.8988
vn -0.4303 0.1916 -0.8821
vn -0.9455 0.0000 -0.3256
vn -0.9374 0.1304 -0.3228
vn -0.8988 0.0000 0.4384
vn -0.8821 0.1916 0.4303
vn -0.3256 0.0000 0.9455
vn -0.3228 0.1304 0.9374
# 25 vertex normals

vt 0.2024 0.5331 0.0000
vt 0.2825 0.3260 0.0000
vt 0.5000 0.5000 0.0000
vt 0.3260 0.7175 0.0000
vt 0.4669 0.2024 0.0000
vt 0.6740 0.2825 0.0000
vt 0.7976 0.4669 0.0000
vt 0.7175 0.6740 0.0000
vt 0.5331 0.7976 0.0000
vt 0.0005 0.5555 0.0000
vt 0.1080 0.1864 0.0000
vt 0.1985 0.2588 0.0000
vt 0.1134 0.5430 0.0000
vt 0.4445 0.0005 0.0000
vt 0.4570 0.1134 0.0000
vt 0.8136 0.1080 0.0000
vt 0.7412 0.1985 0.0000
vt 0.9995 0.4445 0.0000
vt 0.8866 0.4570 0.0000
vt 0.8920 0.8136 0.0000
vt 0.8015 0.7412 0.0000
vt 0.5555 0.9995 0.0000
vt 0.5430 0.8866 0.0000
vt 0.1864 0.8920 0.0000
vt 0.2588 0.8015 0.0000
# 25 texture coords

o Box003
g Box003
usemtl Material__25
s 1
f 120/120/120 121/121/121 122/122/122 123/123/123 
f 121/121/121 124/124/124 125/125/125 122/122/122 
f 126/126/126 127/127/127 122/122/122 125/125/125 
f 127/127/127 128/128/128 123/123/123 122/122/122 
f 129/129/129 130/130/130 131/131/131 132/132/132 
f 130/130/130 133/133/133 134/134/134 131/131/131 
f 124/124/124 121/121/121 131/131/131 134/134/134 
f 121/121/121 120/120/120 132/132/132 131/131/131 
f 133/133/133 135/135/135 136/136/136 134/134/134 
f 135/135/135 137/137/137 138/138/138 136/136/136 
f 126/126/126 125/125/125 136/136/136 138/138/138 
f 125/125/125 124/124/124 134/134/134 136/136/136 
f 137/137/137 139/139/139 140/140/140 138/138/138 
f 139/139/139 141/141/141 142/142/142 140/140/140 
f 128/128/128 127/127/127 140/140/140 142/142/142 
f 127/127/127 126/126/126 138/138/138 140/140/140 
f 141/141/141 143/143/143 144/144/144 142/142/142 
f 143/143/143 129/129/129 132/132/132 144/144/144 
f 120/120/120 123/123/123 144/144/144 132/132/132 
f 123/123/123 128/128/128 142/142/142 144/144/144 
# 20 polygons

